<svg xmlns="http://www.w3.org/2000/svg" viewBox="0 0 640 180">
  <!-- Same lockup as logo-horizontal.svg, recolored (cream outlines, cream
       "509") for use on dark fudge-brown backgrounds — site footer/hero. -->

  <g transform="translate(6,6) scale(0.7)">
    <path d="M95 165 L145 165 L120 193 Z" fill="#e8b968" stroke="#fff8ec" stroke-width="2.5" stroke-linejoin="round"/>
    <line x1="103" y1="171" x2="115" y2="166" stroke="#fff8ec" stroke-width="1.6" stroke-linecap="round" opacity="0.7"/>
    <line x1="110" y1="179" x2="120" y2="174" stroke="#fff8ec" stroke-width="1.6" stroke-linecap="round" opacity="0.7"/>
    <line x1="137" y1="171" x2="125" y2="166" stroke="#fff8ec" stroke-width="1.6" stroke-linecap="round" opacity="0.7"/>
    <g stroke="#fff8ec" stroke-width="3" stroke-linejoin="round">
      <ellipse cx="120" cy="148" rx="26" ry="17" fill="#6b4226"/>
      <ellipse cx="126" cy="124" rx="21" ry="15" fill="#7c4f2e"/>
      <ellipse cx="112" cy="104" rx="16" ry="12" fill="#6b4226"/>
      <circle cx="120" cy="88" r="12" fill="#7c4f2e"/>
    </g>
    <ellipse cx="114" cy="86" rx="3.5" ry="4.3" fill="#fff"/>
    <ellipse cx="126" cy="86" rx="3.5" ry="4.3" fill="#fff"/>
    <circle cx="114" cy="87" r="1.8" fill="#2b1c10"/>
    <circle cx="126" cy="87" r="1.8" fill="#2b1c10"/>
    <circle cx="106" cy="90" r="2.3" fill="#ff8fa3" opacity="0.8"/>
    <circle cx="134" cy="90" r="2.3" fill="#ff8fa3" opacity="0.8"/>
    <path d="M114 92 Q120 96 126 92" stroke="#2b1c10" stroke-width="1.6" fill="none" stroke-linecap="round"/>
    <path d="M120 62 Q117 54 109 50" stroke="#6fbf73" stroke-width="2" fill="none" stroke-linecap="round"/>
    <ellipse cx="105" cy="48" rx="5" ry="2.8" fill="#6fbf73" transform="rotate(-25 105 48)"/>
    <circle cx="120" cy="68" r="6.5" fill="#e63950" stroke="#fff8ec" stroke-width="1.6"/>
    <path d="M92 55 Q97 46 92 40" stroke="#cfc3b4" stroke-width="1.6" fill="none" stroke-linecap="round" opacity="0.7"/>
    <path d="M150 58 Q145 49 150 43" stroke="#cfc3b4" stroke-width="1.6" fill="none" stroke-linecap="round" opacity="0.7"/>
  </g>

  <rect x="172" y="30" width="5" height="16" rx="2.5" fill="#8fd9c4" transform="rotate(20 174.5 38)"/>
  <rect x="560" y="34" width="5" height="16" rx="2.5" fill="#ffd166" transform="rotate(-15 562.5 42)"/>
  <rect x="580" y="120" width="5" height="16" rx="2.5" fill="#ff8fa3" transform="rotate(30 582.5 128)"/>

  <text x="172" y="108" font-family="Fredoka, 'Baloo 2', sans-serif" font-weight="600" font-size="66" letter-spacing="0">
    <tspan fill="#fff8ec">509 </tspan><tspan fill="#ff9fc1">Scoops</tspan>
  </text>
  <text x="174" y="136" font-family="'Nunito', sans-serif" font-weight="700" font-size="13" letter-spacing="2.5" fill="#cbb9a8">TRI-CITIES DOG WASTE REMOVAL</text>
</svg>
